<mxfile host="app.diagrams.net" agent="Mozilla/5.0 (Macintosh; Intel Mac OS X 10_15_7) AppleWebKit/537.36 (KHTML, like Gecko) Chrome/139.0.0.0 Safari/537.36" version="28.2.0">
  <diagram name="第 1 页" id="h79g8-MPT-_nmRXX5x8S">
    <mxGraphModel dx="756" dy="359" grid="1" gridSize="10" guides="1" tooltips="1" connect="1" arrows="1" fold="1" page="1" pageScale="1" pageWidth="827" pageHeight="1169" math="1" shadow="0">
      <root>
        <mxCell id="0" />
        <mxCell id="1" parent="0" />
        <mxCell id="ompO99UlxH5ITaPUVdwf-10" value="" style="rounded=0;whiteSpace=wrap;html=1;fontSize=6;dashed=1;" parent="1" vertex="1">
          <mxGeometry x="189" y="152" width="390" height="160" as="geometry" />
        </mxCell>
        <mxCell id="ompO99UlxH5ITaPUVdwf-104" style="edgeStyle=orthogonalEdgeStyle;rounded=0;orthogonalLoop=1;jettySize=auto;html=1;exitX=0.5;exitY=0;exitDx=0;exitDy=0;entryX=0.5;entryY=1;entryDx=0;entryDy=0;endArrow=blockThin;endFill=1;" parent="1" source="ompO99UlxH5ITaPUVdwf-1" target="ompO99UlxH5ITaPUVdwf-11" edge="1">
          <mxGeometry relative="1" as="geometry" />
        </mxCell>
        <mxCell id="ompO99UlxH5ITaPUVdwf-1" value="[CLS]" style="rounded=1;whiteSpace=wrap;html=1;fillColor=#ffe6cc;strokeColor=#d79b00;fontSize=6;" parent="1" vertex="1">
          <mxGeometry x="199" y="320" width="40" height="20" as="geometry" />
        </mxCell>
        <mxCell id="ompO99UlxH5ITaPUVdwf-105" style="edgeStyle=orthogonalEdgeStyle;rounded=0;orthogonalLoop=1;jettySize=auto;html=1;exitX=0.5;exitY=0;exitDx=0;exitDy=0;entryX=0.5;entryY=1;entryDx=0;entryDy=0;endArrow=blockThin;endFill=1;" parent="1" source="ompO99UlxH5ITaPUVdwf-2" target="ompO99UlxH5ITaPUVdwf-12" edge="1">
          <mxGeometry relative="1" as="geometry" />
        </mxCell>
        <mxCell id="ompO99UlxH5ITaPUVdwf-2" value="&amp;lt;dom&amp;gt;" style="rounded=1;whiteSpace=wrap;html=1;fillColor=#ffe6cc;strokeColor=#d79b00;fontSize=6;" parent="1" vertex="1">
          <mxGeometry x="249" y="320" width="40" height="20" as="geometry" />
        </mxCell>
        <mxCell id="ompO99UlxH5ITaPUVdwf-106" style="edgeStyle=orthogonalEdgeStyle;rounded=0;orthogonalLoop=1;jettySize=auto;html=1;exitX=0.5;exitY=0;exitDx=0;exitDy=0;entryX=0.5;entryY=1;entryDx=0;entryDy=0;endArrow=blockThin;endFill=1;" parent="1" source="ompO99UlxH5ITaPUVdwf-3" target="ompO99UlxH5ITaPUVdwf-13" edge="1">
          <mxGeometry relative="1" as="geometry" />
        </mxCell>
        <mxCell id="ompO99UlxH5ITaPUVdwf-3" value="&amp;lt;int&amp;gt;" style="rounded=1;whiteSpace=wrap;html=1;fillColor=#ffe6cc;strokeColor=#d79b00;fontSize=6;" parent="1" vertex="1">
          <mxGeometry x="299" y="320" width="40" height="20" as="geometry" />
        </mxCell>
        <mxCell id="ompO99UlxH5ITaPUVdwf-107" style="edgeStyle=orthogonalEdgeStyle;rounded=0;orthogonalLoop=1;jettySize=auto;html=1;exitX=0.5;exitY=0;exitDx=0;exitDy=0;entryX=0.5;entryY=1;entryDx=0;entryDy=0;endArrow=blockThin;endFill=1;" parent="1" source="ompO99UlxH5ITaPUVdwf-4" target="ompO99UlxH5ITaPUVdwf-14" edge="1">
          <mxGeometry relative="1" as="geometry" />
        </mxCell>
        <mxCell id="ompO99UlxH5ITaPUVdwf-4" value="tok 1" style="rounded=1;whiteSpace=wrap;html=1;fillColor=#ffe6cc;strokeColor=#d79b00;fontSize=6;" parent="1" vertex="1">
          <mxGeometry x="349" y="320" width="40" height="20" as="geometry" />
        </mxCell>
        <mxCell id="ompO99UlxH5ITaPUVdwf-108" style="edgeStyle=orthogonalEdgeStyle;rounded=0;orthogonalLoop=1;jettySize=auto;html=1;exitX=0.5;exitY=0;exitDx=0;exitDy=0;entryX=0.5;entryY=1;entryDx=0;entryDy=0;endArrow=blockThin;endFill=1;" parent="1" source="ompO99UlxH5ITaPUVdwf-5" target="ompO99UlxH5ITaPUVdwf-15" edge="1">
          <mxGeometry relative="1" as="geometry" />
        </mxCell>
        <mxCell id="ompO99UlxH5ITaPUVdwf-5" value="tok 2" style="rounded=1;whiteSpace=wrap;html=1;fillColor=#ffe6cc;strokeColor=#d79b00;fontSize=6;" parent="1" vertex="1">
          <mxGeometry x="399" y="320" width="40" height="20" as="geometry" />
        </mxCell>
        <mxCell id="ompO99UlxH5ITaPUVdwf-7" value="···" style="text;html=1;align=center;verticalAlign=middle;whiteSpace=wrap;rounded=0;fontSize=6;" parent="1" vertex="1">
          <mxGeometry x="439" y="320" width="40" height="20" as="geometry" />
        </mxCell>
        <mxCell id="ompO99UlxH5ITaPUVdwf-109" style="edgeStyle=orthogonalEdgeStyle;rounded=0;orthogonalLoop=1;jettySize=auto;html=1;exitX=0.5;exitY=0;exitDx=0;exitDy=0;entryX=0.5;entryY=1;entryDx=0;entryDy=0;endArrow=blockThin;endFill=1;" parent="1" source="ompO99UlxH5ITaPUVdwf-8" target="ompO99UlxH5ITaPUVdwf-17" edge="1">
          <mxGeometry relative="1" as="geometry" />
        </mxCell>
        <mxCell id="ompO99UlxH5ITaPUVdwf-8" value="tok n" style="rounded=1;whiteSpace=wrap;html=1;fillColor=#ffe6cc;strokeColor=#d79b00;fontSize=6;" parent="1" vertex="1">
          <mxGeometry x="479" y="320" width="40" height="20" as="geometry" />
        </mxCell>
        <mxCell id="ompO99UlxH5ITaPUVdwf-110" style="edgeStyle=orthogonalEdgeStyle;rounded=0;orthogonalLoop=1;jettySize=auto;html=1;exitX=0.5;exitY=0;exitDx=0;exitDy=0;entryX=0.5;entryY=1;entryDx=0;entryDy=0;endArrow=blockThin;endFill=1;" parent="1" source="ompO99UlxH5ITaPUVdwf-9" target="ompO99UlxH5ITaPUVdwf-18" edge="1">
          <mxGeometry relative="1" as="geometry" />
        </mxCell>
        <mxCell id="ompO99UlxH5ITaPUVdwf-9" value="[SEP]" style="rounded=1;whiteSpace=wrap;html=1;fillColor=#ffe6cc;strokeColor=#d79b00;fontSize=6;" parent="1" vertex="1">
          <mxGeometry x="529" y="320" width="40" height="20" as="geometry" />
        </mxCell>
        <mxCell id="ompO99UlxH5ITaPUVdwf-78" style="rounded=0;orthogonalLoop=1;jettySize=auto;html=1;exitX=0.5;exitY=0;exitDx=0;exitDy=0;endArrow=none;endFill=0;opacity=10;strokeWidth=1;" parent="1" source="ompO99UlxH5ITaPUVdwf-11" edge="1">
          <mxGeometry relative="1" as="geometry">
            <mxPoint x="269" y="260" as="targetPoint" />
          </mxGeometry>
        </mxCell>
        <mxCell id="ompO99UlxH5ITaPUVdwf-11" value="$$E_{[CLS]}$$" style="rounded=1;whiteSpace=wrap;html=1;fillColor=#f8cecc;strokeColor=#b85450;fontSize=6;" parent="1" vertex="1">
          <mxGeometry x="199" y="280" width="40" height="20" as="geometry" />
        </mxCell>
        <mxCell id="ompO99UlxH5ITaPUVdwf-87" style="rounded=0;orthogonalLoop=1;jettySize=auto;html=1;exitX=0.5;exitY=0;exitDx=0;exitDy=0;endArrow=none;endFill=0;opacity=10;strokeWidth=1;" parent="1" source="ompO99UlxH5ITaPUVdwf-12" edge="1">
          <mxGeometry relative="1" as="geometry">
            <mxPoint x="219" y="260" as="targetPoint" />
          </mxGeometry>
        </mxCell>
        <mxCell id="ompO99UlxH5ITaPUVdwf-88" style="rounded=0;orthogonalLoop=1;jettySize=auto;html=1;exitX=0.5;exitY=0;exitDx=0;exitDy=0;entryX=0.5;entryY=1;entryDx=0;entryDy=0;endArrow=none;endFill=0;opacity=10;strokeWidth=1;" parent="1" source="ompO99UlxH5ITaPUVdwf-12" target="ompO99UlxH5ITaPUVdwf-44" edge="1">
          <mxGeometry relative="1" as="geometry" />
        </mxCell>
        <mxCell id="ompO99UlxH5ITaPUVdwf-89" style="rounded=0;orthogonalLoop=1;jettySize=auto;html=1;exitX=0.5;exitY=0;exitDx=0;exitDy=0;endArrow=none;endFill=0;opacity=10;strokeWidth=1;" parent="1" source="ompO99UlxH5ITaPUVdwf-12" edge="1">
          <mxGeometry relative="1" as="geometry">
            <mxPoint x="369" y="260" as="targetPoint" />
          </mxGeometry>
        </mxCell>
        <mxCell id="ompO99UlxH5ITaPUVdwf-90" style="rounded=0;orthogonalLoop=1;jettySize=auto;html=1;exitX=0.5;exitY=0;exitDx=0;exitDy=0;endArrow=none;endFill=0;opacity=10;strokeWidth=1;" parent="1" source="ompO99UlxH5ITaPUVdwf-12" edge="1">
          <mxGeometry relative="1" as="geometry">
            <mxPoint x="419" y="260" as="targetPoint" />
          </mxGeometry>
        </mxCell>
        <mxCell id="ompO99UlxH5ITaPUVdwf-91" style="rounded=0;orthogonalLoop=1;jettySize=auto;html=1;exitX=0.5;exitY=0;exitDx=0;exitDy=0;entryX=0.5;entryY=1;entryDx=0;entryDy=0;endArrow=none;endFill=0;opacity=10;strokeWidth=1;" parent="1" source="ompO99UlxH5ITaPUVdwf-12" target="ompO99UlxH5ITaPUVdwf-69" edge="1">
          <mxGeometry relative="1" as="geometry" />
        </mxCell>
        <mxCell id="ompO99UlxH5ITaPUVdwf-92" style="rounded=0;orthogonalLoop=1;jettySize=auto;html=1;exitX=0.5;exitY=0;exitDx=0;exitDy=0;endArrow=none;endFill=0;opacity=10;strokeWidth=1;" parent="1" source="ompO99UlxH5ITaPUVdwf-12" edge="1">
          <mxGeometry relative="1" as="geometry">
            <mxPoint x="549" y="260" as="targetPoint" />
          </mxGeometry>
        </mxCell>
        <mxCell id="ompO99UlxH5ITaPUVdwf-12" value="$$E_{&amp;lt;dom&amp;gt;}$$" style="rounded=1;whiteSpace=wrap;html=1;fillColor=#f8cecc;strokeColor=#b85450;fontSize=6;" parent="1" vertex="1">
          <mxGeometry x="249" y="280" width="40" height="20" as="geometry" />
        </mxCell>
        <mxCell id="ompO99UlxH5ITaPUVdwf-13" value="$$E_{&amp;lt;int&amp;gt;}$$" style="rounded=1;whiteSpace=wrap;html=1;fillColor=#f8cecc;strokeColor=#b85450;fontSize=6;" parent="1" vertex="1">
          <mxGeometry x="299" y="280" width="40" height="20" as="geometry" />
        </mxCell>
        <mxCell id="ompO99UlxH5ITaPUVdwf-14" value="$$E_{tok\,1}$$" style="rounded=1;whiteSpace=wrap;html=1;fillColor=#f8cecc;strokeColor=#b85450;fontSize=6;" parent="1" vertex="1">
          <mxGeometry x="349" y="280" width="40" height="20" as="geometry" />
        </mxCell>
        <mxCell id="ompO99UlxH5ITaPUVdwf-15" value="$$E_{tok\,2}$$" style="rounded=1;whiteSpace=wrap;html=1;fillColor=#f8cecc;strokeColor=#b85450;fontSize=6;" parent="1" vertex="1">
          <mxGeometry x="399" y="280" width="40" height="20" as="geometry" />
        </mxCell>
        <mxCell id="ompO99UlxH5ITaPUVdwf-16" value="···" style="text;html=1;align=center;verticalAlign=middle;whiteSpace=wrap;rounded=0;fontSize=6;" parent="1" vertex="1">
          <mxGeometry x="439" y="280" width="40" height="20" as="geometry" />
        </mxCell>
        <mxCell id="ompO99UlxH5ITaPUVdwf-17" value="$$E_{tok\,n}$$" style="rounded=1;whiteSpace=wrap;html=1;fillColor=#f8cecc;strokeColor=#b85450;fontSize=6;" parent="1" vertex="1">
          <mxGeometry x="479" y="280" width="40" height="20" as="geometry" />
        </mxCell>
        <mxCell id="ompO99UlxH5ITaPUVdwf-18" value="$$E_{[SEP]}$$" style="rounded=1;whiteSpace=wrap;html=1;fillColor=#f8cecc;strokeColor=#b85450;fontSize=6;" parent="1" vertex="1">
          <mxGeometry x="529" y="280" width="40" height="20" as="geometry" />
        </mxCell>
        <mxCell id="ompO99UlxH5ITaPUVdwf-19" value="$$O_{[CLS]}$$" style="rounded=1;whiteSpace=wrap;html=1;fillColor=#d5e8d4;strokeColor=#82b366;fontSize=6;" parent="1" vertex="1">
          <mxGeometry x="199" y="160" width="40" height="20" as="geometry" />
        </mxCell>
        <mxCell id="ompO99UlxH5ITaPUVdwf-114" style="edgeStyle=orthogonalEdgeStyle;rounded=0;orthogonalLoop=1;jettySize=auto;html=1;exitX=0.5;exitY=0;exitDx=0;exitDy=0;entryX=0.5;entryY=1;entryDx=0;entryDy=0;endArrow=blockThin;endFill=1;" parent="1" source="ompO99UlxH5ITaPUVdwf-20" target="ompO99UlxH5ITaPUVdwf-112" edge="1">
          <mxGeometry relative="1" as="geometry" />
        </mxCell>
        <mxCell id="ompO99UlxH5ITaPUVdwf-20" value="$$O_{&amp;lt;dom&amp;gt;}$$" style="rounded=1;whiteSpace=wrap;html=1;fillColor=#d5e8d4;strokeColor=#82b366;fontSize=6;" parent="1" vertex="1">
          <mxGeometry x="249" y="160" width="40" height="20" as="geometry" />
        </mxCell>
        <mxCell id="ompO99UlxH5ITaPUVdwf-115" style="edgeStyle=orthogonalEdgeStyle;rounded=0;orthogonalLoop=1;jettySize=auto;html=1;exitX=0.5;exitY=0;exitDx=0;exitDy=0;entryX=0.5;entryY=1;entryDx=0;entryDy=0;endArrow=blockThin;endFill=1;" parent="1" source="ompO99UlxH5ITaPUVdwf-21" target="ompO99UlxH5ITaPUVdwf-113" edge="1">
          <mxGeometry relative="1" as="geometry" />
        </mxCell>
        <mxCell id="ompO99UlxH5ITaPUVdwf-21" value="$$O_{&amp;lt;int&amp;gt;}$$" style="rounded=1;whiteSpace=wrap;html=1;fillColor=#d5e8d4;strokeColor=#82b366;fontSize=6;" parent="1" vertex="1">
          <mxGeometry x="299" y="160" width="40" height="20" as="geometry" />
        </mxCell>
        <mxCell id="ompO99UlxH5ITaPUVdwf-117" style="edgeStyle=orthogonalEdgeStyle;rounded=0;orthogonalLoop=1;jettySize=auto;html=1;exitX=0.5;exitY=0;exitDx=0;exitDy=0;entryX=0.5;entryY=1;entryDx=0;entryDy=0;endArrow=blockThin;endFill=1;" parent="1" source="ompO99UlxH5ITaPUVdwf-22" target="ompO99UlxH5ITaPUVdwf-116" edge="1">
          <mxGeometry relative="1" as="geometry">
            <Array as="points">
              <mxPoint x="369" y="140" />
              <mxPoint x="441" y="140" />
            </Array>
          </mxGeometry>
        </mxCell>
        <mxCell id="ompO99UlxH5ITaPUVdwf-22" value="$$O_{tok\,1}$$" style="rounded=1;whiteSpace=wrap;html=1;fillColor=#d5e8d4;strokeColor=#82b366;fontSize=6;" parent="1" vertex="1">
          <mxGeometry x="349" y="160" width="40" height="20" as="geometry" />
        </mxCell>
        <mxCell id="ompO99UlxH5ITaPUVdwf-23" value="$$O_{tok\,2}$$" style="rounded=1;whiteSpace=wrap;html=1;fillColor=#d5e8d4;strokeColor=#82b366;fontSize=6;" parent="1" vertex="1">
          <mxGeometry x="399" y="160" width="40" height="20" as="geometry" />
        </mxCell>
        <mxCell id="ompO99UlxH5ITaPUVdwf-24" value="···" style="text;html=1;align=center;verticalAlign=middle;whiteSpace=wrap;rounded=0;fontSize=6;" parent="1" vertex="1">
          <mxGeometry x="439" y="160" width="40" height="20" as="geometry" />
        </mxCell>
        <mxCell id="ompO99UlxH5ITaPUVdwf-118" style="edgeStyle=orthogonalEdgeStyle;rounded=0;orthogonalLoop=1;jettySize=auto;html=1;exitX=0.5;exitY=0;exitDx=0;exitDy=0;entryX=0.5;entryY=1;entryDx=0;entryDy=0;endArrow=blockThin;endFill=1;" parent="1" target="ompO99UlxH5ITaPUVdwf-116" edge="1">
          <mxGeometry relative="1" as="geometry">
            <mxPoint x="459" y="120" as="targetPoint" />
            <mxPoint x="498" y="160" as="sourcePoint" />
            <Array as="points">
              <mxPoint x="498" y="140" />
              <mxPoint x="440" y="140" />
            </Array>
          </mxGeometry>
        </mxCell>
        <mxCell id="ompO99UlxH5ITaPUVdwf-25" value="$$O_{tok\,n}$$" style="rounded=1;whiteSpace=wrap;html=1;fillColor=#d5e8d4;strokeColor=#82b366;fontSize=6;" parent="1" vertex="1">
          <mxGeometry x="479" y="160" width="40" height="20" as="geometry" />
        </mxCell>
        <mxCell id="ompO99UlxH5ITaPUVdwf-26" value="$$O_{[SEP]}$$" style="rounded=1;whiteSpace=wrap;html=1;fillColor=#d5e8d4;strokeColor=#82b366;fontSize=6;" parent="1" vertex="1">
          <mxGeometry x="529" y="160" width="40" height="20" as="geometry" />
        </mxCell>
        <mxCell id="ompO99UlxH5ITaPUVdwf-33" value="" style="ellipse;whiteSpace=wrap;html=1;aspect=fixed;opacity=10;strokeWidth=1;" parent="1" vertex="1">
          <mxGeometry x="209" y="200" width="20" height="20" as="geometry" />
        </mxCell>
        <mxCell id="ompO99UlxH5ITaPUVdwf-93" style="rounded=0;orthogonalLoop=1;jettySize=auto;html=1;exitX=0.5;exitY=0;exitDx=0;exitDy=0;entryX=0.5;entryY=1;entryDx=0;entryDy=0;endArrow=none;endFill=0;opacity=10;" parent="1" source="ompO99UlxH5ITaPUVdwf-34" target="ompO99UlxH5ITaPUVdwf-38" edge="1">
          <mxGeometry relative="1" as="geometry" />
        </mxCell>
        <mxCell id="ompO99UlxH5ITaPUVdwf-98" style="rounded=0;orthogonalLoop=1;jettySize=auto;html=1;exitX=0.5;exitY=0;exitDx=0;exitDy=0;endArrow=none;endFill=0;opacity=10;" parent="1" source="ompO99UlxH5ITaPUVdwf-34" edge="1">
          <mxGeometry relative="1" as="geometry">
            <mxPoint x="419" y="220" as="targetPoint" />
          </mxGeometry>
        </mxCell>
        <mxCell id="ompO99UlxH5ITaPUVdwf-99" style="rounded=0;orthogonalLoop=1;jettySize=auto;html=1;exitX=0.5;exitY=0;exitDx=0;exitDy=0;endArrow=none;endFill=0;opacity=10;" parent="1" source="ompO99UlxH5ITaPUVdwf-34" edge="1">
          <mxGeometry relative="1" as="geometry">
            <mxPoint x="499" y="220" as="targetPoint" />
          </mxGeometry>
        </mxCell>
        <mxCell id="ompO99UlxH5ITaPUVdwf-34" value="" style="ellipse;whiteSpace=wrap;html=1;aspect=fixed;opacity=10;strokeWidth=1;" parent="1" vertex="1">
          <mxGeometry x="209" y="240" width="20" height="20" as="geometry" />
        </mxCell>
        <mxCell id="ompO99UlxH5ITaPUVdwf-35" value="" style="endArrow=none;html=1;rounded=0;opacity=10;strokeWidth=1;" parent="1" edge="1">
          <mxGeometry width="50" height="50" relative="1" as="geometry">
            <mxPoint x="218.8" y="260" as="sourcePoint" />
            <mxPoint x="218.8" y="280" as="targetPoint" />
          </mxGeometry>
        </mxCell>
        <mxCell id="ompO99UlxH5ITaPUVdwf-36" value="" style="endArrow=none;html=1;rounded=0;opacity=10;strokeWidth=1;" parent="1" edge="1">
          <mxGeometry width="50" height="50" relative="1" as="geometry">
            <mxPoint x="218.8" y="220" as="sourcePoint" />
            <mxPoint x="218.8" y="240" as="targetPoint" />
          </mxGeometry>
        </mxCell>
        <mxCell id="ompO99UlxH5ITaPUVdwf-37" value="" style="endArrow=none;html=1;rounded=0;opacity=10;strokeWidth=1;" parent="1" edge="1">
          <mxGeometry width="50" height="50" relative="1" as="geometry">
            <mxPoint x="218.8" y="180" as="sourcePoint" />
            <mxPoint x="218.8" y="200" as="targetPoint" />
          </mxGeometry>
        </mxCell>
        <mxCell id="ompO99UlxH5ITaPUVdwf-38" value="" style="ellipse;whiteSpace=wrap;html=1;aspect=fixed;opacity=10;strokeWidth=1;" parent="1" vertex="1">
          <mxGeometry x="259" y="200" width="20" height="20" as="geometry" />
        </mxCell>
        <mxCell id="ompO99UlxH5ITaPUVdwf-100" style="rounded=0;orthogonalLoop=1;jettySize=auto;html=1;exitX=0.5;exitY=0;exitDx=0;exitDy=0;endArrow=none;endFill=0;opacity=10;" parent="1" source="ompO99UlxH5ITaPUVdwf-59" edge="1">
          <mxGeometry relative="1" as="geometry">
            <mxPoint x="549" y="220" as="targetPoint" />
          </mxGeometry>
        </mxCell>
        <mxCell id="ompO99UlxH5ITaPUVdwf-39" value="" style="ellipse;whiteSpace=wrap;html=1;aspect=fixed;opacity=10;strokeWidth=1;" parent="1" vertex="1">
          <mxGeometry x="259" y="240" width="20" height="20" as="geometry" />
        </mxCell>
        <mxCell id="ompO99UlxH5ITaPUVdwf-40" value="" style="endArrow=none;html=1;rounded=0;opacity=10;strokeWidth=1;" parent="1" edge="1">
          <mxGeometry width="50" height="50" relative="1" as="geometry">
            <mxPoint x="268.8" y="260" as="sourcePoint" />
            <mxPoint x="268.8" y="280" as="targetPoint" />
          </mxGeometry>
        </mxCell>
        <mxCell id="ompO99UlxH5ITaPUVdwf-41" value="" style="endArrow=none;html=1;rounded=0;opacity=10;strokeWidth=1;" parent="1" edge="1">
          <mxGeometry width="50" height="50" relative="1" as="geometry">
            <mxPoint x="268.8" y="220" as="sourcePoint" />
            <mxPoint x="268.8" y="240" as="targetPoint" />
          </mxGeometry>
        </mxCell>
        <mxCell id="ompO99UlxH5ITaPUVdwf-42" value="" style="endArrow=none;html=1;rounded=0;opacity=10;strokeWidth=1;" parent="1" edge="1">
          <mxGeometry width="50" height="50" relative="1" as="geometry">
            <mxPoint x="268.8" y="180" as="sourcePoint" />
            <mxPoint x="268.8" y="200" as="targetPoint" />
          </mxGeometry>
        </mxCell>
        <mxCell id="ompO99UlxH5ITaPUVdwf-43" value="" style="ellipse;whiteSpace=wrap;html=1;aspect=fixed;opacity=10;strokeWidth=1;" parent="1" vertex="1">
          <mxGeometry x="309" y="200" width="20" height="20" as="geometry" />
        </mxCell>
        <mxCell id="ompO99UlxH5ITaPUVdwf-44" value="" style="ellipse;whiteSpace=wrap;html=1;aspect=fixed;opacity=10;strokeWidth=1;" parent="1" vertex="1">
          <mxGeometry x="309" y="240" width="20" height="20" as="geometry" />
        </mxCell>
        <mxCell id="ompO99UlxH5ITaPUVdwf-45" value="" style="endArrow=none;html=1;rounded=0;opacity=10;strokeWidth=1;" parent="1" edge="1">
          <mxGeometry width="50" height="50" relative="1" as="geometry">
            <mxPoint x="318.8" y="260" as="sourcePoint" />
            <mxPoint x="318.8" y="280" as="targetPoint" />
          </mxGeometry>
        </mxCell>
        <mxCell id="ompO99UlxH5ITaPUVdwf-46" value="" style="endArrow=none;html=1;rounded=0;opacity=10;strokeWidth=1;" parent="1" edge="1">
          <mxGeometry width="50" height="50" relative="1" as="geometry">
            <mxPoint x="318.8" y="220" as="sourcePoint" />
            <mxPoint x="318.8" y="240" as="targetPoint" />
          </mxGeometry>
        </mxCell>
        <mxCell id="ompO99UlxH5ITaPUVdwf-47" value="" style="endArrow=none;html=1;rounded=0;opacity=10;strokeWidth=1;" parent="1" edge="1">
          <mxGeometry width="50" height="50" relative="1" as="geometry">
            <mxPoint x="318.8" y="180" as="sourcePoint" />
            <mxPoint x="318.8" y="200" as="targetPoint" />
          </mxGeometry>
        </mxCell>
        <mxCell id="ompO99UlxH5ITaPUVdwf-58" value="" style="ellipse;whiteSpace=wrap;html=1;aspect=fixed;opacity=10;strokeWidth=1;" parent="1" vertex="1">
          <mxGeometry x="359" y="200" width="20" height="20" as="geometry" />
        </mxCell>
        <mxCell id="ompO99UlxH5ITaPUVdwf-59" value="" style="ellipse;whiteSpace=wrap;html=1;aspect=fixed;opacity=10;strokeWidth=1;" parent="1" vertex="1">
          <mxGeometry x="359" y="240" width="20" height="20" as="geometry" />
        </mxCell>
        <mxCell id="ompO99UlxH5ITaPUVdwf-60" value="" style="endArrow=none;html=1;rounded=0;opacity=10;strokeWidth=1;" parent="1" edge="1">
          <mxGeometry width="50" height="50" relative="1" as="geometry">
            <mxPoint x="368.8" y="260" as="sourcePoint" />
            <mxPoint x="368.8" y="280" as="targetPoint" />
          </mxGeometry>
        </mxCell>
        <mxCell id="ompO99UlxH5ITaPUVdwf-61" value="" style="endArrow=none;html=1;rounded=0;opacity=10;strokeWidth=1;" parent="1" edge="1">
          <mxGeometry width="50" height="50" relative="1" as="geometry">
            <mxPoint x="368.8" y="220" as="sourcePoint" />
            <mxPoint x="368.8" y="240" as="targetPoint" />
          </mxGeometry>
        </mxCell>
        <mxCell id="ompO99UlxH5ITaPUVdwf-62" value="" style="endArrow=none;html=1;rounded=0;opacity=10;strokeWidth=1;" parent="1" edge="1">
          <mxGeometry width="50" height="50" relative="1" as="geometry">
            <mxPoint x="368.8" y="180" as="sourcePoint" />
            <mxPoint x="368.8" y="200" as="targetPoint" />
          </mxGeometry>
        </mxCell>
        <mxCell id="ompO99UlxH5ITaPUVdwf-63" value="" style="ellipse;whiteSpace=wrap;html=1;aspect=fixed;opacity=10;strokeWidth=1;" parent="1" vertex="1">
          <mxGeometry x="409" y="200" width="20" height="20" as="geometry" />
        </mxCell>
        <mxCell id="ompO99UlxH5ITaPUVdwf-64" value="" style="ellipse;whiteSpace=wrap;html=1;aspect=fixed;opacity=10;strokeWidth=1;" parent="1" vertex="1">
          <mxGeometry x="409" y="240" width="20" height="20" as="geometry" />
        </mxCell>
        <mxCell id="ompO99UlxH5ITaPUVdwf-65" value="" style="endArrow=none;html=1;rounded=0;opacity=10;strokeWidth=1;" parent="1" edge="1">
          <mxGeometry width="50" height="50" relative="1" as="geometry">
            <mxPoint x="418.8" y="260" as="sourcePoint" />
            <mxPoint x="418.8" y="280" as="targetPoint" />
          </mxGeometry>
        </mxCell>
        <mxCell id="ompO99UlxH5ITaPUVdwf-66" value="" style="endArrow=none;html=1;rounded=0;opacity=10;strokeWidth=1;" parent="1" edge="1">
          <mxGeometry width="50" height="50" relative="1" as="geometry">
            <mxPoint x="418.8" y="220" as="sourcePoint" />
            <mxPoint x="418.8" y="240" as="targetPoint" />
          </mxGeometry>
        </mxCell>
        <mxCell id="ompO99UlxH5ITaPUVdwf-67" value="" style="endArrow=none;html=1;rounded=0;opacity=10;strokeWidth=1;" parent="1" edge="1">
          <mxGeometry width="50" height="50" relative="1" as="geometry">
            <mxPoint x="418.8" y="180" as="sourcePoint" />
            <mxPoint x="418.8" y="200" as="targetPoint" />
          </mxGeometry>
        </mxCell>
        <mxCell id="ompO99UlxH5ITaPUVdwf-68" value="" style="ellipse;whiteSpace=wrap;html=1;aspect=fixed;opacity=10;strokeWidth=1;" parent="1" vertex="1">
          <mxGeometry x="489" y="200" width="20" height="20" as="geometry" />
        </mxCell>
        <mxCell id="ompO99UlxH5ITaPUVdwf-69" value="" style="ellipse;whiteSpace=wrap;html=1;aspect=fixed;opacity=10;strokeWidth=1;" parent="1" vertex="1">
          <mxGeometry x="489" y="240" width="20" height="20" as="geometry" />
        </mxCell>
        <mxCell id="ompO99UlxH5ITaPUVdwf-70" value="" style="endArrow=none;html=1;rounded=0;opacity=10;strokeWidth=1;" parent="1" edge="1">
          <mxGeometry width="50" height="50" relative="1" as="geometry">
            <mxPoint x="498.8" y="260" as="sourcePoint" />
            <mxPoint x="498.8" y="280" as="targetPoint" />
          </mxGeometry>
        </mxCell>
        <mxCell id="ompO99UlxH5ITaPUVdwf-71" value="" style="endArrow=none;html=1;rounded=0;opacity=10;strokeWidth=1;" parent="1" edge="1">
          <mxGeometry width="50" height="50" relative="1" as="geometry">
            <mxPoint x="498.8" y="220" as="sourcePoint" />
            <mxPoint x="498.8" y="240" as="targetPoint" />
          </mxGeometry>
        </mxCell>
        <mxCell id="ompO99UlxH5ITaPUVdwf-72" value="" style="endArrow=none;html=1;rounded=0;opacity=10;strokeWidth=1;" parent="1" edge="1">
          <mxGeometry width="50" height="50" relative="1" as="geometry">
            <mxPoint x="498.8" y="180" as="sourcePoint" />
            <mxPoint x="498.8" y="200" as="targetPoint" />
          </mxGeometry>
        </mxCell>
        <mxCell id="ompO99UlxH5ITaPUVdwf-73" value="" style="ellipse;whiteSpace=wrap;html=1;aspect=fixed;opacity=10;strokeWidth=1;" parent="1" vertex="1">
          <mxGeometry x="539" y="200" width="20" height="20" as="geometry" />
        </mxCell>
        <mxCell id="ompO99UlxH5ITaPUVdwf-74" value="" style="ellipse;whiteSpace=wrap;html=1;aspect=fixed;opacity=10;strokeWidth=1;" parent="1" vertex="1">
          <mxGeometry x="539" y="240" width="20" height="20" as="geometry" />
        </mxCell>
        <mxCell id="ompO99UlxH5ITaPUVdwf-75" value="" style="endArrow=none;html=1;rounded=0;opacity=10;strokeWidth=1;" parent="1" edge="1">
          <mxGeometry width="50" height="50" relative="1" as="geometry">
            <mxPoint x="548.8" y="260" as="sourcePoint" />
            <mxPoint x="548.8" y="280" as="targetPoint" />
          </mxGeometry>
        </mxCell>
        <mxCell id="ompO99UlxH5ITaPUVdwf-76" value="" style="endArrow=none;html=1;rounded=0;opacity=10;strokeWidth=1;" parent="1" edge="1">
          <mxGeometry width="50" height="50" relative="1" as="geometry">
            <mxPoint x="548.8" y="220" as="sourcePoint" />
            <mxPoint x="548.8" y="240" as="targetPoint" />
          </mxGeometry>
        </mxCell>
        <mxCell id="ompO99UlxH5ITaPUVdwf-77" value="" style="endArrow=none;html=1;rounded=0;opacity=10;strokeWidth=1;" parent="1" edge="1">
          <mxGeometry width="50" height="50" relative="1" as="geometry">
            <mxPoint x="548.8" y="180" as="sourcePoint" />
            <mxPoint x="548.8" y="200" as="targetPoint" />
          </mxGeometry>
        </mxCell>
        <mxCell id="ompO99UlxH5ITaPUVdwf-80" style="rounded=0;orthogonalLoop=1;jettySize=auto;html=1;exitX=0.5;exitY=0;exitDx=0;exitDy=0;endArrow=none;endFill=0;opacity=10;strokeWidth=1;" parent="1" source="ompO99UlxH5ITaPUVdwf-11" edge="1">
          <mxGeometry relative="1" as="geometry">
            <mxPoint x="319" y="260" as="targetPoint" />
            <mxPoint x="249" y="280" as="sourcePoint" />
          </mxGeometry>
        </mxCell>
        <mxCell id="ompO99UlxH5ITaPUVdwf-81" style="rounded=0;orthogonalLoop=1;jettySize=auto;html=1;exitX=0.5;exitY=0;exitDx=0;exitDy=0;endArrow=none;endFill=0;opacity=10;strokeWidth=1;" parent="1" source="ompO99UlxH5ITaPUVdwf-11" edge="1">
          <mxGeometry relative="1" as="geometry">
            <mxPoint x="369" y="260" as="targetPoint" />
            <mxPoint x="299" y="280" as="sourcePoint" />
          </mxGeometry>
        </mxCell>
        <mxCell id="ompO99UlxH5ITaPUVdwf-82" style="rounded=0;orthogonalLoop=1;jettySize=auto;html=1;exitX=0.5;exitY=0;exitDx=0;exitDy=0;endArrow=none;endFill=0;opacity=10;strokeWidth=1;" parent="1" source="ompO99UlxH5ITaPUVdwf-11" edge="1">
          <mxGeometry relative="1" as="geometry">
            <mxPoint x="419" y="260" as="targetPoint" />
            <mxPoint x="399" y="270" as="sourcePoint" />
          </mxGeometry>
        </mxCell>
        <mxCell id="ompO99UlxH5ITaPUVdwf-83" style="rounded=0;orthogonalLoop=1;jettySize=auto;html=1;exitX=0.5;exitY=0;exitDx=0;exitDy=0;endArrow=none;endFill=0;opacity=10;strokeWidth=1;" parent="1" source="ompO99UlxH5ITaPUVdwf-11" edge="1">
          <mxGeometry relative="1" as="geometry">
            <mxPoint x="499" y="260" as="targetPoint" />
            <mxPoint x="409" y="280" as="sourcePoint" />
          </mxGeometry>
        </mxCell>
        <mxCell id="ompO99UlxH5ITaPUVdwf-84" style="rounded=0;orthogonalLoop=1;jettySize=auto;html=1;exitX=0.5;exitY=0;exitDx=0;exitDy=0;endArrow=none;endFill=0;opacity=10;textOpacity=10;labelBackgroundColor=none;shadow=1;strokeWidth=1;" parent="1" source="ompO99UlxH5ITaPUVdwf-11" edge="1">
          <mxGeometry relative="1" as="geometry">
            <mxPoint x="549" y="260" as="targetPoint" />
            <mxPoint x="489" y="280" as="sourcePoint" />
          </mxGeometry>
        </mxCell>
        <mxCell id="ompO99UlxH5ITaPUVdwf-85" value="···" style="text;html=1;align=center;verticalAlign=middle;whiteSpace=wrap;rounded=0;fontSize=6;opacity=10;textOpacity=10;strokeWidth=1;" parent="1" vertex="1">
          <mxGeometry x="439" y="200" width="40" height="20" as="geometry" />
        </mxCell>
        <mxCell id="ompO99UlxH5ITaPUVdwf-86" value="···" style="text;html=1;align=center;verticalAlign=middle;whiteSpace=wrap;rounded=0;fontSize=6;opacity=10;textOpacity=10;strokeWidth=1;" parent="1" vertex="1">
          <mxGeometry x="439" y="240" width="40" height="20" as="geometry" />
        </mxCell>
        <mxCell id="ompO99UlxH5ITaPUVdwf-94" style="rounded=0;orthogonalLoop=1;jettySize=auto;html=1;endArrow=none;endFill=0;opacity=10;" parent="1" edge="1">
          <mxGeometry relative="1" as="geometry">
            <mxPoint x="269" y="240" as="sourcePoint" />
            <mxPoint x="319" y="220" as="targetPoint" />
          </mxGeometry>
        </mxCell>
        <mxCell id="ompO99UlxH5ITaPUVdwf-95" style="rounded=0;orthogonalLoop=1;jettySize=auto;html=1;entryX=0.5;entryY=1;entryDx=0;entryDy=0;endArrow=none;endFill=0;opacity=10;" parent="1" target="ompO99UlxH5ITaPUVdwf-58" edge="1">
          <mxGeometry relative="1" as="geometry">
            <mxPoint x="219" y="240" as="sourcePoint" />
            <mxPoint x="399" y="210" as="targetPoint" />
          </mxGeometry>
        </mxCell>
        <mxCell id="ompO99UlxH5ITaPUVdwf-96" style="rounded=0;orthogonalLoop=1;jettySize=auto;html=1;exitX=0.5;exitY=0;exitDx=0;exitDy=0;endArrow=none;endFill=0;opacity=10;" parent="1" source="ompO99UlxH5ITaPUVdwf-39" edge="1">
          <mxGeometry relative="1" as="geometry">
            <mxPoint x="359" y="240" as="sourcePoint" />
            <mxPoint x="369" y="220" as="targetPoint" />
          </mxGeometry>
        </mxCell>
        <mxCell id="ompO99UlxH5ITaPUVdwf-97" style="rounded=0;orthogonalLoop=1;jettySize=auto;html=1;exitX=0.5;exitY=0;exitDx=0;exitDy=0;entryX=0.5;entryY=1;entryDx=0;entryDy=0;endArrow=none;endFill=0;opacity=10;" parent="1" source="ompO99UlxH5ITaPUVdwf-34" edge="1">
          <mxGeometry relative="1" as="geometry">
            <mxPoint x="319" y="240" as="sourcePoint" />
            <mxPoint x="369" y="220" as="targetPoint" />
          </mxGeometry>
        </mxCell>
        <mxCell id="ompO99UlxH5ITaPUVdwf-101" value="&lt;font style=&quot;font-size: 16px;&quot;&gt;BERT&lt;/font&gt;" style="text;html=1;align=center;verticalAlign=middle;whiteSpace=wrap;rounded=0;" parent="1" vertex="1">
          <mxGeometry x="354" y="210" width="60" height="30" as="geometry" />
        </mxCell>
        <mxCell id="ompO99UlxH5ITaPUVdwf-121" style="edgeStyle=orthogonalEdgeStyle;rounded=0;orthogonalLoop=1;jettySize=auto;html=1;exitX=0.5;exitY=0;exitDx=0;exitDy=0;entryX=0.5;entryY=1;entryDx=0;entryDy=0;endArrow=blockThin;endFill=1;fontSize=6;" parent="1" source="ompO99UlxH5ITaPUVdwf-112" target="ompO99UlxH5ITaPUVdwf-120" edge="1">
          <mxGeometry relative="1" as="geometry" />
        </mxCell>
        <mxCell id="ompO99UlxH5ITaPUVdwf-122" value="argmax" style="edgeLabel;html=1;align=center;verticalAlign=middle;resizable=0;points=[];fontSize=6;" parent="ompO99UlxH5ITaPUVdwf-121" vertex="1" connectable="0">
          <mxGeometry x="-0.2008" y="-1" relative="1" as="geometry">
            <mxPoint as="offset" />
          </mxGeometry>
        </mxCell>
        <mxCell id="ompO99UlxH5ITaPUVdwf-112" value="Conv2d" style="rounded=0;whiteSpace=wrap;html=1;fontSize=6;fillColor=#dae8fc;strokeColor=#6c8ebf;" parent="1" vertex="1">
          <mxGeometry x="249" y="100" width="41" height="20" as="geometry" />
        </mxCell>
        <mxCell id="ompO99UlxH5ITaPUVdwf-113" value="Conv2d" style="rounded=0;whiteSpace=wrap;html=1;fontSize=6;fillColor=#dae8fc;strokeColor=#6c8ebf;" parent="1" vertex="1">
          <mxGeometry x="299" y="100" width="41" height="20" as="geometry" />
        </mxCell>
        <mxCell id="ompO99UlxH5ITaPUVdwf-116" value="Conv2d" style="rounded=0;whiteSpace=wrap;html=1;fontSize=6;fillColor=#dae8fc;strokeColor=#6c8ebf;" parent="1" vertex="1">
          <mxGeometry x="421" y="100" width="39" height="20" as="geometry" />
        </mxCell>
        <mxCell id="ompO99UlxH5ITaPUVdwf-120" value="domain" style="rounded=1;whiteSpace=wrap;html=1;fillColor=#e1d5e7;strokeColor=#9673a6;fontSize=6;" parent="1" vertex="1">
          <mxGeometry x="249" y="50" width="40" height="20" as="geometry" />
        </mxCell>
        <mxCell id="ompO99UlxH5ITaPUVdwf-123" style="edgeStyle=orthogonalEdgeStyle;rounded=0;orthogonalLoop=1;jettySize=auto;html=1;exitX=0.5;exitY=0;exitDx=0;exitDy=0;entryX=0.5;entryY=1;entryDx=0;entryDy=0;endArrow=blockThin;endFill=1;fontSize=6;" parent="1" target="ompO99UlxH5ITaPUVdwf-125" edge="1">
          <mxGeometry relative="1" as="geometry">
            <mxPoint x="321" y="100" as="sourcePoint" />
          </mxGeometry>
        </mxCell>
        <mxCell id="ompO99UlxH5ITaPUVdwf-124" value="argmax" style="edgeLabel;html=1;align=center;verticalAlign=middle;resizable=0;points=[];fontSize=6;" parent="ompO99UlxH5ITaPUVdwf-123" vertex="1" connectable="0">
          <mxGeometry x="-0.2008" y="-1" relative="1" as="geometry">
            <mxPoint as="offset" />
          </mxGeometry>
        </mxCell>
        <mxCell id="ompO99UlxH5ITaPUVdwf-125" value="intent" style="rounded=1;whiteSpace=wrap;html=1;fillColor=#e1d5e7;strokeColor=#9673a6;fontSize=6;" parent="1" vertex="1">
          <mxGeometry x="300" y="50" width="40" height="20" as="geometry" />
        </mxCell>
        <mxCell id="ompO99UlxH5ITaPUVdwf-129" style="edgeStyle=orthogonalEdgeStyle;rounded=0;orthogonalLoop=1;jettySize=auto;html=1;exitX=0.5;exitY=0;exitDx=0;exitDy=0;entryX=0.5;entryY=1;entryDx=0;entryDy=0;endArrow=blockThin;endFill=1;fontSize=6;" parent="1" source="ompO99UlxH5ITaPUVdwf-126" target="ompO99UlxH5ITaPUVdwf-128" edge="1">
          <mxGeometry relative="1" as="geometry" />
        </mxCell>
        <mxCell id="ompO99UlxH5ITaPUVdwf-126" value="CRF" style="rounded=0;whiteSpace=wrap;html=1;fontSize=6;fillColor=#dae8fc;strokeColor=#6c8ebf;" parent="1" vertex="1">
          <mxGeometry x="421" y="60" width="39" height="20" as="geometry" />
        </mxCell>
        <mxCell id="ompO99UlxH5ITaPUVdwf-127" style="rounded=0;orthogonalLoop=1;jettySize=auto;html=1;exitX=0.5;exitY=0;exitDx=0;exitDy=0;entryX=0.5;entryY=1;entryDx=0;entryDy=0;endArrow=blockThin;endFill=1;fontSize=6;" parent="1" source="ompO99UlxH5ITaPUVdwf-116" target="ompO99UlxH5ITaPUVdwf-126" edge="1">
          <mxGeometry relative="1" as="geometry" />
        </mxCell>
        <mxCell id="ompO99UlxH5ITaPUVdwf-128" value="slots" style="rounded=1;whiteSpace=wrap;html=1;fillColor=#e1d5e7;strokeColor=#9673a6;fontSize=6;" parent="1" vertex="1">
          <mxGeometry x="421" y="20" width="40" height="20" as="geometry" />
        </mxCell>
        <mxCell id="ompO99UlxH5ITaPUVdwf-131" value="(bz, seq_len)" style="text;html=1;align=left;verticalAlign=middle;whiteSpace=wrap;rounded=0;fontSize=6;" parent="1" vertex="1">
          <mxGeometry x="610" y="320" width="40" height="20" as="geometry" />
        </mxCell>
        <mxCell id="ompO99UlxH5ITaPUVdwf-132" value="(bz, seq_len, emb_size)" style="text;html=1;align=left;verticalAlign=middle;whiteSpace=wrap;rounded=0;fontSize=6;" parent="1" vertex="1">
          <mxGeometry x="610" y="280" width="70" height="20" as="geometry" />
        </mxCell>
        <mxCell id="ompO99UlxH5ITaPUVdwf-133" value="(bz, seq_len, hidden_size)" style="text;html=1;align=left;verticalAlign=middle;whiteSpace=wrap;rounded=0;fontSize=6;" parent="1" vertex="1">
          <mxGeometry x="610" y="160" width="90" height="20" as="geometry" />
        </mxCell>
        <mxCell id="ompO99UlxH5ITaPUVdwf-134" value="(bz, hidden_size, 1, seq_len)&amp;nbsp; N,C,H,W" style="text;html=1;align=left;verticalAlign=middle;whiteSpace=wrap;rounded=0;fontSize=6;" parent="1" vertex="1">
          <mxGeometry x="840" y="120" width="150" height="20" as="geometry" />
        </mxCell>
        <mxCell id="ompO99UlxH5ITaPUVdwf-144" value="$$O$$" style="rounded=0;whiteSpace=wrap;html=1;strokeColor=#82b366;fillColor=#d5e8d4;fontSize=6;" parent="1" vertex="1">
          <mxGeometry x="700" y="160" width="80" height="20" as="geometry" />
        </mxCell>
        <mxCell id="ompO99UlxH5ITaPUVdwf-145" value="&lt;font style=&quot;font-size: 5px;&quot;&gt;$$hidden\_size$$&lt;/font&gt;" style="text;html=1;align=center;verticalAlign=middle;whiteSpace=wrap;rounded=0;fontSize=6;" parent="1" vertex="1">
          <mxGeometry x="735" y="150" width="10" height="10" as="geometry" />
        </mxCell>
        <mxCell id="ompO99UlxH5ITaPUVdwf-146" value="$$s$$" style="text;html=1;align=center;verticalAlign=middle;whiteSpace=wrap;rounded=0;fontSize=6;" parent="1" vertex="1">
          <mxGeometry x="690" y="165" width="10" height="10" as="geometry" />
        </mxCell>
        <mxCell id="M9-eFOPsmeMYkoSfVBVo-1" value="(bz, hidden_size, 1, seq_len)&amp;nbsp; N,C,H,W" style="text;html=1;align=left;verticalAlign=middle;whiteSpace=wrap;rounded=0;fontSize=6;" vertex="1" parent="1">
          <mxGeometry x="690" y="150" width="150" height="20" as="geometry" />
        </mxCell>
      </root>
    </mxGraphModel>
  </diagram>
</mxfile>
